Coordinates
version=1
nRows=5
nColumns=40
inDegrees=yes

Units are S.I. units (second, meters, Newtons, ...)
Angles are in degrees.

endheader
time	pelvis_tilt	pelvis_list	pelvis_rotation	pelvis_tx	pelvis_ty	pelvis_tz	hip_flexion_r	hip_adduction_r	hip_rotation_r	knee_angle_r	knee_angle_r_beta	ankle_angle_r	subtalar_angle_r	mtp_angle_r	hip_flexion_l	hip_adduction_l	hip_rotation_l	knee_angle_l	knee_angle_l_beta	ankle_angle_l	subtalar_angle_l	mtp_angle_l	lumbar_extension	lumbar_bending	lumbar_rotation	arm_flex_r	arm_add_r	arm_rot_r	elbow_flex_r	pro_sup_r	wrist_flex_r	wrist_dev_r	arm_flex_l	arm_add_l	arm_rot_l	elbow_flex_l	pro_sup_l	wrist_flex_l	wrist_dev_l
     42.41000000	     -5.74309148	     -3.78450205	      8.24017177	      0.90551775	      0.91871473	      0.53764886	      6.65546251	      2.23184035	    -12.02915540	     18.55313952	     18.55313952	     19.22764005	     -4.50276443	     -1.95504272	     28.65349099	     -6.87163571	      0.74158157	     15.46183202	     15.46183202	      2.32532167	     -0.75075011	     -1.59541327	     -8.26383045	      3.66171331	      1.56144632	     52.94316803	    -18.27092101	    -11.60877032	    101.13662666	     44.47942296	      0.00000000	      0.00000000	     -9.82599499	     -7.67910442	      9.18143376	     31.80854686	     44.32964218	      0.00000000	      0.00000000
     42.42885714	     -6.05159765	     -3.86750906	      8.02559970	      0.90584916	      0.91784953	      0.53495094	      6.47633254	      2.17270473	    -11.84213711	     18.40241909	     18.40241909	     19.45954976	     -4.40881958	     -2.00491161	     28.62552174	     -6.87581860	      0.37231890	     15.52934830	     15.52934830	      2.14756520	     -0.95957666	     -1.59785764	     -8.11807047	      3.42995671	      1.46382619	     53.04580526	    -18.12050754	    -11.53770045	    101.19180940	     44.47675479	      0.00000000	      0.00000000	     -9.26425636	     -7.76350123	      9.15558507	     31.96708301	     44.34350887	      0.00000000	      0.00000000
     42.44771429	     -6.17984048	     -3.81449943	      7.69662234	      0.90655372	      0.91729486	      0.53198586	      5.95100796	      1.94316207	    -11.79265702	     18.04602829	     18.04602829	     19.68638431	     -3.73709847	     -1.82509003	     28.30324530	     -6.75014501	      0.18940916	     15.56862746	     15.56862746	      0.55445741	     -2.25893783	     -4.88250386	     -8.15512894	      3.11854554	      1.54212843	     53.16501533	    -17.52397594	    -11.35840761	    101.26115023	     44.51384796	      0.00000000	      0.00000000	     -8.20998877	     -7.69043538	      8.53411236	     31.13967667	     44.52588504	      0.00000000	      0.00000000
     42.46657143	     -6.37307234	     -3.76356757	      7.42229694	      0.90728078	      0.91679930	      0.52886875	      5.63181654	      1.71632423	    -11.53222786	     17.92258046	     17.92258046	     19.79173497	     -3.64416970	     -1.81302701	     28.25304408	     -6.63601869	     -0.12959113	     16.12499323	     16.12499323	      0.41573168	     -2.77691666	     -4.98261511	     -8.12733821	      2.79100817	      1.52921656	     52.95744463	    -17.27109745	    -11.22805356	    101.16185062	     44.51380987	      0.00000000	      0.00000000	     -7.37337821	     -7.91060281	      8.44041078	     31.36909429	     44.55506859	      0.00000000	      0.00000000
     42.48542857	     -6.43703006	     -3.82233242	      7.17104001	      0.90823596	      0.91636023	      0.52550765	      5.14055676	      1.60251236	    -11.37520588	     17.74366696	     17.74366696	     19.87576302	     -3.44396908	     -1.74521669	     28.43700645	     -6.56417246	      0.06309368	     17.38171895	     17.38171895	      0.40648240	     -4.14836182	     -5.37696457	     -8.16565892	      2.61817772	      1.65573146	     52.52635430	    -17.20310158	    -11.24629398	    100.66357136	     44.53600108	      0.00000000	      0.00000000	     -6.51792175	     -8.08101687	      8.13735352	     31.41082496	     44.62381798	      0.00000000	      0.00000000
